<?xml version="1.0" encoding="UTF-8" standalone="no"?><!DOCTYPE svg PUBLIC "-//W3C//DTD SVG 1.1//EN" "http://www.w3.org/Graphics/SVG/1.1/DTD/svg11.dtd"><svg width="100%" height="100%" viewBox="0 0 127 106" version="1.1" xmlns="http://www.w3.org/2000/svg" xmlnsXlink="http://www.w3.org/1999/xlink" xmlSpace="preserve" xmlnsSerif="http://www.serif.com/" style="fill-rule:evenodd;clip-rule:evenodd;stroke-linejoin:round;stroke-miterlimit:2;"><path d="M70.768,91.08c2.447,-3.172 1.859,-7.735 -1.313,-10.182l-48.893,-37.723c-3.172,-2.447 -7.735,-1.859 -10.182,1.313l-8.869,11.495c-2.448,3.172 -1.859,7.735 1.313,10.182l48.893,37.723c3.172,2.448 7.735,1.859 10.182,-1.313l8.869,-11.495Z" style="fill:#fff;"/><path d="M112.582,1.548c-3.151,-2.474 -7.719,-1.923 -10.192,1.228l-63.351,80.711c-2.474,3.151 -1.923,7.719 1.228,10.192l11.421,8.965c3.152,2.474 7.719,1.923 10.193,-1.229l63.35,-80.71c2.474,-3.152 1.924,-7.719 -1.228,-10.193l-11.421,-8.964Z" style="fill:#fff;"/></svg>