<?xml version="1.0" encoding="UTF-8" standalone="no"?><!DOCTYPE svg PUBLIC "-//W3C//DTD SVG 1.1//EN" "http://www.w3.org/Graphics/SVG/1.1/DTD/svg11.dtd"><svg width="100%" height="100%" viewBox="0 0 97 77" version="1.1" xmlns="http://www.w3.org/2000/svg" xmlnsXlink="http://www.w3.org/1999/xlink" xmlSpace="preserve" xmlnsSerif="http://www.serif.com/" style="fill-rule:evenodd;clip-rule:evenodd;stroke-linejoin:round;stroke-miterlimit:2;"><path d="M52.196,68.154c1.456,-1.855 1.132,-4.543 -0.723,-5.999l-39.288,-30.837c-1.855,-1.456 -4.543,-1.132 -5.998,0.722l-5.276,6.722c-1.456,1.855 -1.132,4.542 0.723,5.998l39.288,30.838c1.855,1.456 4.543,1.132 5.998,-0.723l5.276,-6.721Z" style="fill:#fff;"/><path d="M87.76,0.911c-1.855,-1.456 -4.543,-1.132 -5.999,0.723l-49.113,62.571c-1.456,1.855 -1.132,4.543 0.723,5.999l6.721,5.275c1.855,1.456 4.543,1.132 5.999,-0.722l49.113,-62.572c1.456,-1.855 1.132,-4.543 -0.723,-5.998l-6.721,-5.276Z" style="fill:#fff;"/></svg>