<?xml version="1.0" encoding="UTF-8" standalone="no"?><!DOCTYPE svg PUBLIC "-//W3C//DTD SVG 1.1//EN" "http://www.w3.org/Graphics/SVG/1.1/DTD/svg11.dtd"><svg width="100%" height="100%" viewBox="0 0 2867 4055" version="1.1" xmlns="http://www.w3.org/2000/svg" xmlnsXlink="http://www.w3.org/1999/xlink" xmlSpace="preserve" xmlnsSerif="http://www.serif.com/" style="fill-rule:evenodd;clip-rule:evenodd;stroke-linejoin:round;stroke-miterlimit:2;"><g><path d="M1498.67,3284.16l-195.834,-0.001c-137.916,0.001 -250,112.084 -250,250.001l0,270.416c0,137.917 112.084,250 250,250l195.834,0c137.921,0 250,-112.083 250,-250l-0,-270.417c-0,-138.329 -112.079,-250 -250,-250Z" style="fill:#fff;fill-rule:nonzero;"/><path d="M117.834,1190.83l361.25,45c114.584,14.167 223.334,-51.666 264.584,-159.583c52.083,-136.25 124.583,-243.75 217.5,-322.083c131.671,-110.834 295.416,-166.667 491.25,-166.667c202.916,0 364.583,53.333 484.583,159.583c120,106.667 179.583,234.167 179.583,383.75c0,107.5 -33.75,205.834 -101.25,295c-43.75,56.667 -178.333,175.834 -402.916,357.917c-225,182.083 -374.579,346.246 -449.579,492.079c-76.667,149.171 -103.334,314.584 -110,480.421c-5.83,142.083 107.5,260.417 250,260.417l204.166,-0c130,-0 237.5,-99.584 249.167,-228.75c8.333,-92.913 23.75,-163.329 47.087,-211.246c39.163,-82.088 140.413,-190.421 302.913,-325.417c314.579,-260.421 519.579,-466.254 615.833,-617.921c95.834,-151.25 144.167,-311.666 144.167,-481.25c-0,-306.25 -130.417,-575 -391.667,-805.833c-260.833,-230.833 -612.5,-346.25 -1054.17,-346.25c-420,0 -758.75,113.75 -1017.08,341.667c-220,194.166 -353.75,424.166 -400.833,689.583c-14.588,77.5 38.329,150 115.412,159.583Z" style="fill:#fff;fill-rule:nonzero;"/></g></svg>